<svg width="198" height="33" viewBox="0 0 198 33" fill="none" xmlns="http://www.w3.org/2000/svg">
<path d="M27.208 20C27.208 20.032 26.2 20.048 24.184 20.048C22.2 20.048 19.992 20.048 17.56 20.048C16.28 20.048 15.032 20.048 13.816 20.048C12.6 20.048 11.528 20.048 10.6 20.048C7.976 20.048 5.72 19.104 3.832 17.216C1.944 15.328 1 13.072 1 10.448C1 7.792 1.944 5.536 3.832 3.68C5.72 1.792 7.976 0.847998 10.6 0.847998L37 0.799998V8H10.6C9.96 8.032 9.4 8.288 8.92 8.768C8.44 9.216 8.2 9.776 8.2 10.448C8.2 11.088 8.44 11.648 8.92 12.128C9.432 12.608 9.992 12.848 10.6 12.848C10.6 12.848 11.464 12.848 13.192 12.848C14.952 12.848 16.872 12.848 18.952 12.848C20.84 12.848 22.6 12.848 24.232 12.848C25.864 12.848 26.856 12.848 27.208 12.848C29.864 12.848 32.12 13.792 33.976 15.68C35.864 17.568 36.808 19.84 36.808 22.496C36.808 25.12 35.864 27.376 33.976 29.264C32.12 31.12 29.864 32.048 27.208 32.048H0.952V24.8H27.208C27.88 24.832 28.44 24.608 28.888 24.128C29.368 23.648 29.608 23.088 29.608 22.448C29.608 21.776 29.368 21.216 28.888 20.768C28.44 20.288 27.88 20.048 27.208 20.048V20ZM72.9906 0.799998V22.4C72.9906 25.056 72.0466 27.328 70.1586 29.216C68.3026 31.072 66.0466 32 63.3906 32H48.9906C46.3666 32 44.1106 31.072 42.2226 29.216C40.3346 27.328 39.3906 25.072 39.3906 22.448V0.847998H46.5906V22.4C46.5906 23.04 46.8146 23.584 47.2626 24.032C47.7106 24.48 48.2066 24.752 48.7506 24.848C48.7826 24.848 48.8146 24.848 48.8466 24.848C48.9106 24.848 48.9586 24.848 48.9906 24.848L63.3906 24.8C64.0626 24.832 64.6226 24.608 65.0706 24.128C65.5506 23.648 65.7906 23.088 65.7906 22.448V0.799998H72.9906ZM96.9906 32H89.7906V8H84.9906C84.9586 8.032 84.9106 8.048 84.8466 8.048C84.8146 8.048 84.7826 8.048 84.7506 8.048C84.2066 8.112 83.7106 8.368 83.2626 8.816C82.8146 9.264 82.5906 9.808 82.5906 10.448V32H75.3906V10.4C75.3906 7.776 76.3346 5.536 78.2226 3.68C80.1106 1.792 82.3666 0.847998 84.9906 0.847998L101.791 0.799998C104.447 0.831998 106.703 1.792 108.559 3.68C110.447 5.536 111.391 7.792 111.391 10.448V32H104.191V10.4C104.191 9.76 103.951 9.216 103.471 8.768C103.023 8.288 102.463 8.048 101.791 8.048L96.9906 8V32ZM120.981 32H113.781V0.799998H120.981V32ZM144.991 32H137.791V20H132.991C130.367 20.032 128.111 19.104 126.223 17.216C124.335 15.328 123.391 13.072 123.391 10.448V0.799998H130.591V10.4C130.591 11.04 130.815 11.584 131.263 12.032C131.711 12.48 132.207 12.752 132.751 12.848C132.783 12.848 132.815 12.848 132.847 12.848C132.911 12.848 132.959 12.848 132.991 12.848L149.791 12.8C150.463 12.832 151.023 12.608 151.471 12.128C151.951 11.648 152.191 11.088 152.191 10.448V0.799998H159.391V10.4C159.391 13.056 158.447 15.328 156.559 17.216C154.703 19.104 152.447 20.048 149.791 20.048L144.991 20V32ZM171.381 32C168.757 32 166.501 31.072 164.613 29.216C162.725 27.328 161.781 25.072 161.781 22.448C161.781 22.448 161.781 21.824 161.781 20.576C161.781 19.296 161.781 17.904 161.781 16.4C161.781 15.024 161.781 13.744 161.781 12.56C161.781 11.376 161.781 10.672 161.781 10.448C161.781 7.792 162.725 5.536 164.613 3.68C166.501 1.792 168.757 0.847998 171.381 0.847998L188.181 0.799998C190.837 0.831998 193.093 1.792 194.949 3.68C196.837 5.536 197.781 7.792 197.781 10.448C197.781 10.672 197.781 11.376 197.781 12.56C197.781 13.744 197.781 15.024 197.781 16.4C197.781 17.904 197.781 19.296 197.781 20.576C197.781 21.824 197.781 22.448 197.781 22.448C197.781 25.072 196.837 27.328 194.949 29.216C193.093 31.072 190.837 32 188.181 32H171.381ZM188.181 24.8C188.853 24.8 189.413 24.576 189.861 24.128C190.341 23.648 190.581 23.088 190.581 22.448V10.4C190.581 9.856 190.373 9.376 189.957 8.96C189.541 8.512 189.093 8.224 188.613 8.096C188.549 8.096 188.469 8.096 188.373 8.096C188.309 8.064 188.245 8.048 188.181 8.048L171.381 8C171.253 8.032 171.093 8.096 170.901 8.192C170.709 8.256 170.517 8.352 170.325 8.48C169.973 8.672 169.653 8.944 169.365 9.296C169.109 9.648 168.981 10.032 168.981 10.448V22.4C168.981 23.04 169.205 23.584 169.653 24.032C170.101 24.48 170.597 24.752 171.141 24.848C171.173 24.848 171.205 24.848 171.237 24.848C171.301 24.848 171.349 24.848 171.381 24.848L188.181 24.8Z" fill="black"/>
</svg>
